<svg xmlns="http://www.w3.org/2000/svg" width="1024" height="1024" viewBox="0 0 1024 1024">
    
<defs>
  <linearGradient id="tileG" x1="0.3" y1="0" x2="0.7" y2="1">
    <stop offset="0" stop-color="#F7F3EB"/><stop offset="1" stop-color="#ECE6D9"/>
  </linearGradient>
  <radialGradient id="tileGlow" cx="0.5" cy="0.28" r="0.8">
    <stop offset="0" stop-color="#FFFFFF" stop-opacity="0.6"/><stop offset="1" stop-color="#FFFFFF" stop-opacity="0"/>
  </radialGradient>
  <linearGradient id="charG" x1="0" y1="0" x2="0.25" y2="1">
    <stop offset="0" stop-color="#2E2C27"/><stop offset="1" stop-color="#1B1A16"/>
  </linearGradient>
  <linearGradient id="grnG" x1="0" y1="0" x2="0.25" y2="1">
    <stop offset="0" stop-color="#36A572"/><stop offset="1" stop-color="#2A8159"/>
  </linearGradient>
  <filter id="soft" x="-50%" y="-50%" width="200%" height="200%">
    <feDropShadow dx="0" dy="18" stdDeviation="24" flood-color="#171612" flood-opacity="0.16"/>
  </filter>
  <filter id="softer" x="-50%" y="-50%" width="200%" height="200%">
    <feDropShadow dx="0" dy="10" stdDeviation="16" flood-color="#171612" flood-opacity="0.12"/>
  </filter>
</defs>
    <rect width="1024" height="1024" rx="240.64" fill="url(#tileG)"/>
    <rect width="1024" height="1024" rx="240.64" fill="url(#tileGlow)"/>
    <g transform="translate(-109.17647058823525 -123.73529411764696) scale(1.213235294117647)"><g filter="url(#soft)"><path d="M 262 496 Q 262 470 288 470
    L 320 470 Q 346 470 346 496
    L 346 690 L 262 690 Z" fill="url(#charG)"/><rect x="281" y="510" width="13" height="17" rx="4" fill="#F4F0E7" opacity="0.85"/><rect x="314" y="510" width="13" height="17" rx="4" fill="#F4F0E7" opacity="0.85"/><rect x="281" y="545" width="13" height="17" rx="4" fill="#F4F0E7" opacity="0.85"/><rect x="314" y="545" width="13" height="17" rx="4" fill="#F4F0E7" opacity="0.85"/><rect x="281" y="580" width="13" height="17" rx="4" fill="#F4F0E7" opacity="0.85"/><rect x="314" y="580" width="13" height="17" rx="4" fill="#F4F0E7" opacity="0.85"/><rect x="281" y="615" width="13" height="17" rx="4" fill="#F4F0E7" opacity="0.85"/><rect x="314" y="615" width="13" height="17" rx="4" fill="#F4F0E7" opacity="0.85"/><path d="M 356 386 Q 356 360 382 360
    L 426 360 Q 452 360 452 386
    L 452 690 L 356 690 Z" fill="url(#charG)"/><rect x="381" y="400" width="13" height="17" rx="4" fill="#F4F0E7" opacity="0.85"/><rect x="414" y="400" width="13" height="17" rx="4" fill="#F4F0E7" opacity="0.85"/><rect x="381" y="435" width="13" height="17" rx="4" fill="#F4F0E7" opacity="0.85"/><rect x="414" y="435" width="13" height="17" rx="4" fill="#F4F0E7" opacity="0.85"/><rect x="381" y="470" width="13" height="17" rx="4" fill="#F4F0E7" opacity="0.85"/><rect x="414" y="470" width="13" height="17" rx="4" fill="#F4F0E7" opacity="0.85"/><rect x="381" y="505" width="13" height="17" rx="4" fill="#F4F0E7" opacity="0.85"/><rect x="414" y="505" width="13" height="17" rx="4" fill="#F4F0E7" opacity="0.85"/><rect x="381" y="540" width="13" height="17" rx="4" fill="#F4F0E7" opacity="0.85"/><rect x="414" y="540" width="13" height="17" rx="4" fill="#F4F0E7" opacity="0.85"/><rect x="381" y="575" width="13" height="17" rx="4" fill="#F4F0E7" opacity="0.85"/><rect x="414" y="575" width="13" height="17" rx="4" fill="#F4F0E7" opacity="0.85"/><path d="M 462 326 Q 462 300 488 300
    L 546 300 Q 572 300 572 326
    L 572 690 L 462 690 Z" fill="url(#grnG)"/><rect x="494" y="340" width="13" height="17" rx="4" fill="#F4F0E7" opacity="0.85"/><rect x="527" y="340" width="13" height="17" rx="4" fill="#F4F0E7" opacity="0.85"/><rect x="494" y="375" width="13" height="17" rx="4" fill="#F4F0E7" opacity="0.85"/><rect x="527" y="375" width="13" height="17" rx="4" fill="#F4F0E7" opacity="0.85"/><rect x="494" y="410" width="13" height="17" rx="4" fill="#F4F0E7" opacity="0.85"/><rect x="527" y="410" width="13" height="17" rx="4" fill="#F4F0E7" opacity="0.85"/><rect x="494" y="445" width="13" height="17" rx="4" fill="#F4F0E7" opacity="0.85"/><rect x="527" y="445" width="13" height="17" rx="4" fill="#F4F0E7" opacity="0.85"/><rect x="494" y="480" width="13" height="17" rx="4" fill="#F4F0E7" opacity="0.85"/><rect x="527" y="480" width="13" height="17" rx="4" fill="#F4F0E7" opacity="0.85"/><rect x="494" y="515" width="13" height="17" rx="4" fill="#F4F0E7" opacity="0.85"/><rect x="527" y="515" width="13" height="17" rx="4" fill="#F4F0E7" opacity="0.85"/><rect x="494" y="550" width="13" height="17" rx="4" fill="#F4F0E7" opacity="0.85"/><rect x="527" y="550" width="13" height="17" rx="4" fill="#F4F0E7" opacity="0.85"/><path d="M 582 404 Q 582 378 608 378
    L 646 378 Q 672 378 672 404
    L 672 690 L 582 690 Z" fill="url(#charG)"/><rect x="604" y="418" width="13" height="17" rx="4" fill="#F4F0E7" opacity="0.85"/><rect x="637" y="418" width="13" height="17" rx="4" fill="#F4F0E7" opacity="0.85"/><rect x="604" y="453" width="13" height="17" rx="4" fill="#F4F0E7" opacity="0.85"/><rect x="637" y="453" width="13" height="17" rx="4" fill="#F4F0E7" opacity="0.85"/><rect x="604" y="488" width="13" height="17" rx="4" fill="#F4F0E7" opacity="0.85"/><rect x="637" y="488" width="13" height="17" rx="4" fill="#F4F0E7" opacity="0.85"/><rect x="604" y="523" width="13" height="17" rx="4" fill="#F4F0E7" opacity="0.85"/><rect x="637" y="523" width="13" height="17" rx="4" fill="#F4F0E7" opacity="0.85"/><rect x="604" y="558" width="13" height="17" rx="4" fill="#F4F0E7" opacity="0.85"/><rect x="637" y="558" width="13" height="17" rx="4" fill="#F4F0E7" opacity="0.85"/><path d="M 682 478 Q 682 452 708 452
    L 734 452 Q 760 452 760 478
    L 760 690 L 682 690 Z" fill="url(#charG)"/><rect x="698" y="492" width="13" height="17" rx="4" fill="#F4F0E7" opacity="0.85"/><rect x="731" y="492" width="13" height="17" rx="4" fill="#F4F0E7" opacity="0.85"/><rect x="698" y="527" width="13" height="17" rx="4" fill="#F4F0E7" opacity="0.85"/><rect x="731" y="527" width="13" height="17" rx="4" fill="#F4F0E7" opacity="0.85"/><rect x="698" y="562" width="13" height="17" rx="4" fill="#F4F0E7" opacity="0.85"/><rect x="731" y="562" width="13" height="17" rx="4" fill="#F4F0E7" opacity="0.85"/><rect x="698" y="597" width="13" height="17" rx="4" fill="#F4F0E7" opacity="0.85"/><rect x="731" y="597" width="13" height="17" rx="4" fill="#F4F0E7" opacity="0.85"/></g>
    <g filter="url(#softer)">
      <path d="M 250 700 Q 512 670 512 676 L 512 706 Q 512 706 250 742 Z" fill="#FCFAF5"/>
      <path d="M 774 700 Q 512 670 512 676 L 512 706 Q 512 706 774 742 Z" fill="#FCFAF5"/>
    </g>
    <line x1="286.68" y1="716.8" x2="486" y2="688" stroke="#D7D1C2" stroke-width="5" stroke-linecap="round"/>
            <line x1="538" y1="688" x2="737.3199999999999" y2="716.8" stroke="#D7D1C2" stroke-width="5" stroke-linecap="round"/><line x1="286.68" y1="726.04" x2="486" y2="694.6" stroke="#D7D1C2" stroke-width="5" stroke-linecap="round"/>
            <line x1="538" y1="694.6" x2="737.3199999999999" y2="726.04" stroke="#D7D1C2" stroke-width="5" stroke-linecap="round"/>
    <rect x="509" y="676" width="6" height="30" rx="3" fill="#1B1A16"/></g></svg>